<?xml version="1.0" encoding="utf-8"?>
<!-- Generator: Adobe Illustrator 23.0.6, SVG Export Plug-In . SVG Version: 6.00 Build 0)  -->
<svg version="1.1" id="Layer_1" xmlns="http://www.w3.org/2000/svg" xmlns:xlink="http://www.w3.org/1999/xlink" x="0px" y="0px"
	 viewBox="0 0 359.03 313.42" style="enable-background:new 0 0 359.03 313.42;" xml:space="preserve">
<g>
	<path d="M359.01,274.02c-2.5,11.78-10.64,19.07-20.16,25.25c-2.37,1.54-4.89,2.88-7.13,4.6c-13.34,10.25-28.76,10.24-44.37,8.97
		c-4.59-0.37-8.59-2.33-11.16-6.62c-0.78-1.31-2.33-2.31-3.73-3.07c-6.56-3.6-14.18-5.98-19.55-10.86
		c-7.24-6.59-14.5-9.82-24.35-9.64c-4.19,0.08-9.07-3.28-12.59-6.3c-12.87-11.04-25.16-22.75-38.05-33.77
		c-1.76-1.51-6.11-1.54-8.48-0.49c-6.32,2.79-12.06,6.88-18.33,9.81c-6.86,3.21-13.25,6.77-18.3,12.63
		c-6.99,8.11-16.16,9.17-26.04,7.19c-1.79-0.36-3.53-0.95-5.27-1.5c-10.22-3.22-10.21-3.21-17.22,5.38
		c-5.16,6.32-10.01,13.06-18.97,14.41c-0.58,0.09-1.4,0.47-1.6,0.94c-3.76,8.67-12.02,9.32-19.6,10.62
		c-4.52,0.77-9.36,0.72-13.92,0.06c-16.84-2.44-27.09-13.31-29.34-30.44c-0.1-0.74-0.56-1.44-0.85-2.16c0-2.33,0-4.67,0-7
		c0.93-4.5,1.81-9.01,2.83-13.49c0.48-2.1,1.09-4.19,1.88-6.19c4.36-11.17,12.4-13.56,21.94-6.32c6.49,4.92,12.7,10.2,19.23,15.48
		c0.8-0.84,1.91-2,3.06-3.21c-2.28-2.46-4.21-4.99-6.58-7c-3.44-2.91-2.76-5.87-0.31-8.59c4-4.44,8.31-8.58,12.53-12.82
		c1.27-1.28,2.65-2.45,4.58-4.23c-9.58-3.31-18.5-6.64-27.59-9.41c-4.33-1.32-5.69-3-3.81-7.4c5.73-13.44,11.2-26.99,16.86-40.73
		c0.04,0.03-0.29-0.39-0.71-0.5c-12.51-3.35-16.46-9.72-13.92-22.54c1.67-8.45,7.67-16,14.99-19.3c0.84-5.18,1.13-10.19,2.55-14.86
		c1.72-5.66,5.01-7.18,11.56-6.44c0.9-3.6,1.73-7.29,2.74-10.93c2.56-9.3,5.47-18.51,7.67-27.89c1.01-4.29,3.02-4.55,6.3-3.24
		c7.71,3.08,15.58,5.86,23.06,9.41c11.26,5.35,22.25,11.29,33.37,16.94c2.35,1.19,4.77,2.23,8.6,4.01
		c-5.12-9.19-5.94-17.9-5.88-26.88c0.19-27.16,14.68-43.94,41.75-46.68c9.5-0.96,19.2,0.16,28.81,0.17c1.67,0,3.6-0.42,4.97-1.31
		c3.43-2.21,6.6-4.81,10.99-8.08c0.28,4.15,0.49,7.28,0.76,11.28c2.33-2.27,4.2-4.26,6.27-6.04c1.03-0.89,2.42-1.37,3.64-2.03
		c0.64,1.27,1.61,2.49,1.83,3.83c0.31,1.94,0.08,3.97,0.08,7.26c2.62-2.88,4.58-5.03,6.54-7.18c0.47,0,0.93-0.01,1.4-0.01
		c0.18,3.17,0.35,6.34,0.53,9.51c0.27,0.39,0.55,0.78,0.82,1.17c1.58-2.57,3.16-5.14,4.61-7.49c1.45,1.07,1.9,1.22,1.93,1.44
		c0.77,5.4,4.07,13.02,7.26,17.32c8.45,11.4,14.19,24.06,16.75,38.03c1.34,7.32,1.11,14.62-3.37,22.42
		c5.51-1.53,10.09-2.61,14.55-4.07c14.53-4.76,29.07-9.51,43.5-14.58c4.35-1.53,5.43-0.53,5.72,3.89
		c1.21,18.89-0.27,37.56-3.63,56.16c-0.31,1.7,0.53,4.19,1.73,5.48c9.31,9.97,11.22,25.72,4.41,37.59
		c-3.61,6.29-9.47,8.73-16.16,9.38c-3.06,0.3-4.24,1.19-4.7,4.31c-2.13,14.26-2.67,28.53-0.48,42.78c0.45,2.93-0.57,4.31-2.78,4.84
		c-6.41,1.51-12.89,2.69-19.89,4.11c2.59,7.44,10.25,16.25-2.25,23.54c3.54,2.08,6.48,3.81,9.72,5.73
		c4.24-2.23,8.76-4.65,13.32-7.01c12.26-6.34,24.84-4.96,37.42-1.29c5.65,1.65,6.43,7.04,8.03,11.68
		C359.01,272.69,359.01,273.35,359.01,274.02z M29.54,202.21c1.54,0.69,2.55,1.24,3.63,1.6c15.13,5.08,30.22,10.31,45.43,15.14
		c24,7.62,48.25,14.05,73.72,14.19c1.38,0.01,2.79,0.87,4.12,1.49c9.85,4.62,19.81,4.86,30.06,1.27c3.16-1.1,6.67-1.72,10.01-1.67
		c30.45,0.43,60.9,1.2,91.35,1.5c7.09,0.07,14.21-1.13,21.28-2.01c2.57-0.32,3.61-1.82,3.25-4.94c-1.68-14.45-1.32-28.89,1.1-43.26
		c0.21-1.26,0.03-3.22-0.78-3.92c-5.72-4.99-6.08-11.57-5.8-18.34c0.29-6.97,3.46-10.62,10.3-12.18c2.08-0.47,4.17-0.88,6.72-1.42
		c-0.77-1.97-1.32-3.5-1.96-5c-2.27-5.31-1.43-7.51,3.42-10.78c1.26-0.85,2.3-2.77,2.51-4.32c1.45-10.54,3.02-21.09,3.81-31.7
		c0.6-8.05,0.12-16.19,0.12-25.04c-9.19,3.18-17.28,6.08-25.43,8.79c-28.95,9.62-58.17,17.96-88.89,19.64
		c-2.51,0.14-5.29,1.16-7.36,2.61c-9.68,6.79-16.37,7.47-26.43,0.78c-9.96-6.63-20.67-11.23-31.99-14.83
		c-6.32-2.01-12.48-4.64-18.46-7.52c-14.82-7.16-29.42-14.77-44.24-21.91c-5-2.41-10.42-3.94-15.6-5.85
		c-5.96,13.6-15.05,52.99-14,60c6.77,1.67,9.77,4.23,11.77,10.1c4.85,14.18-4.24,29.74-18.78,32.66c-2,0.4-4.39,2.3-5.31,4.14
		c-4.43,8.93-8.52,18.03-12.52,27.17C32.68,192.97,31.25,197.55,29.54,202.21z M219.38,5.33c-2.31,1.68-3.56,2.46-4.67,3.41
		c-3.71,3.22-7.54,4.14-12.69,3.14c-12.44-2.41-24.91-1.27-36.92,2.81c-12.88,4.38-22.84,12.37-25.48,26.26
		c-1.63,8.55-1.76,17.56-1.23,26.28c0.47,7.76,3.39,15.77,11.29,18.67c13.46,4.94,26.78,9.92,38.68,18.1
		c1.21,0.83,2.67,1.42,4.1,1.78c4.66,1.16,9.55,1.63,13.19-2.05c4.26-4.31,9.45-4.87,14.97-5.65c14.46-2.06,28.87-4.51,43.27-7.01
		c1.45-0.25,3.03-1.66,3.91-2.96c4.13-6.14,4.75-12.93,3.41-20.09c-2.62-13.99-8.4-26.54-16.86-37.94
		c-2.78-3.75-10.22-4.54-6.91-11.73c-3.84,0.14-6.79,2.08-11,3.37c1.15-3.37,1.79-5.23,2.41-7.05c-3.32,1.96-6.42,3.78-10.7,6.3
		c1.54-5.38,2.62-9.14,3.69-12.89c-0.35-0.11-0.71-0.21-1.06-0.32c-4,3.12-8,6.25-12,9.37c-0.35-0.33-0.7-0.65-1.05-0.98
		C218.21,12.97,218.7,9.76,219.38,5.33z M37.4,300.04c5.62-1.31,11.36-2.25,16.83-4.02c5.83-1.89,7.53-4.99,7.03-11.04
		c-0.82-9.87-4.94-18.37-11.98-25.14c-7.76-7.47-15.9-14.58-24.19-21.49c-7.46-6.22-14.21-4.51-17.47,4.62
		c-2.05,5.73-3.11,11.88-4.03,17.93C0.96,278.13,11.75,300.91,37.4,300.04z M298.83,310.49l0.87,0.05
		c6.34-1.08,12.58,0.03,18.08-2.72c10.03-5.01,19.65-11.21,28.46-18.15c4.2-3.31,7.1-9.15,8.9-14.42
		c2.27-6.66-1.53-11.28-8.38-13.27c-20.83-6.06-37.43,2.66-52.62,15.31c-5.03,4.19-9.19,9.66-12.9,15.12
		c-5.74,8.44-1.47,16.91,8.57,17.83C292.79,310.51,295.84,310.49,298.83,310.49z M224.58,262.06c6.86,6.4,14.36,11.97,20.01,19.01
		c8.15,10.16,19.81,13.95,29.21,19.43c3.48-5.76,6.24-11.33,9.94-16.17c3.87-5.06,8.65-9.43,13.29-14.37
		c-1.26-0.74-2.64-1.33-3.76-2.24c-4.18-3.4-9.72-6.14-12.09-10.55c-4.67-8.71-11.17-10.77-19.96-9.19
		c-0.65,0.12-1.33,0.04-1.99,0.09C246.14,249.02,234.05,252.42,224.58,262.06z M115.68,271.07c4.79-2.36,9.68-3.38,12.42-6.37
		c7.91-8.67,17.68-13.86,28.29-18.09c3.22-1.29,6.14-3.34,9.99-5.48c-5.89-1.98-10.51-4.72-15.23-4.92
		c-26.38-1.08-51.78-6.98-76.41-15.78c-9.31-3.33-15.85-2.85-21.98,4.83c-2.78,3.49-6.16,6.5-9.26,9.73
		c1.66,0.88,2.49,0.9,3.26,0.69c15.65-4.08,31.02-2.32,46.23,2.31c10.96,3.33,18.68,10.06,21.56,21.43
		C115.33,262.6,115.21,265.99,115.68,271.07z M110.75,257.25c-3.08-8.04-8.31-13.22-17.19-15.92c-6.64-2.02-13.56-3.06-20.35-4.59
		c-6.14-1.38-11.53-1.65-14.44,5.79c-1,2.56-3.92,4.4-6.02,6.51c-1.6,1.61-3.29,3.14-4.56,4.34c3.97,5.5,8.29,10.23,11.09,15.74
		c2.78,5.46,4.03,11.7,6.06,17.93c6.58-0.82,10.83-5.52,14.56-10.61c6.13-8.35,13.95-14.1,23.89-16.99
		C106,258.8,108.19,258.06,110.75,257.25z M292.59,247.36c-2.88-8.43-3.79-8.77-10.11-8.84c-26.78-0.27-53.58-0.51-80.34-1.38
		c-7.46-0.24-14.36,0.29-21.94,4.28c10.56,9.32,20.83,18.38,31.75,28.02C233.69,243.68,262,241.95,292.59,247.36z M69.43,130.7
		c-0.1-6.76-3.52-12.06-8.89-12.84c-17.25-2.5-26.96,5.93-28.43,23.08c-0.59,6.81,3.17,11.29,9.76,13.25
		C56.72,158.61,69.69,147.55,69.43,130.7z M338.02,154.61c-0.05-4.17-2.15-10.88-7.77-15.99c-1.15-1.05-3.42-0.88-5.17-1.27
		c-0.36,1.66-1.18,3.38-0.98,4.97c0.38,2.98,2.79,6.77,1.67,8.59c-1.21,1.98-5.46,2.1-8.39,3.03c-0.16,0.05-0.33,0.06-0.49,0.1
		c-5.27,1.54-7.36,4.8-7.38,11.49c-0.02,8.04,2.7,13.63,7.55,14.92c1.53,0.41,3.31,0.31,4.89-0.01
		C332.55,178.29,337.95,170.64,338.02,154.61z M240.68,279.95c-7.02-5.88-12.94-10.85-19.01-15.93c-2.82,2.45-5.24,4.56-7.76,6.76
		C221.19,278.1,228.89,282.49,240.68,279.95z M55.52,114.67c0.86-4.68,1.79-8.72,2.25-12.82c0.17-1.5-0.77-3.13-1.21-4.7
		c-1.71,0.73-4.12,0.99-5.01,2.29c-3.17,4.66-3.84,9.93-2.54,15.71C51.36,114.98,53.3,114.83,55.52,114.67z M288.02,262.05
		c2.56-3.03,4.75-5.15,6.25-7.69c0.44-0.75-0.84-3.64-1.76-3.87c-4.4-1.13-8.94-1.68-14.82-2.67
		C281.44,252.98,284.37,257.03,288.02,262.05z M112.09,259.69c-5.44,1.89-10.19,3.54-14.95,5.19c0.03,0.41,0.06,0.82,0.09,1.23
		c4.83,1.3,9.65,2.59,15.44,4.15C112.45,266.25,112.28,263.25,112.09,259.69z M51.79,247.11c2.75-3.77,4.85-6.65,6.95-9.52
		c-0.27-0.34-0.54-0.67-0.82-1.01c-4.28,0.76-8.56,1.52-13.96,2.47C46.88,242.07,49.01,244.26,51.79,247.11z"/>
	<path d="M123.13,196.9c2.79-1.24,5.39-1.55,6.33-2.96c3.19-4.8,5.96-9.91,8.6-15.06c5.75-11.21,11.29-22.52,17-33.75
		c0.66-1.31,1.82-2.37,2.75-3.54c0.46,0.26,0.92,0.52,1.38,0.78c-0.79,1.98-1.58,3.96-2.26,5.66c3.51,0.48,7.77-0.04,10.55,1.74
		c2.83,1.82,5.21,5.66,6.05,9.04c2.63,10.67-2.26,20.52-11.09,24.05c-7.8,3.12-13.87,0.87-19.66-7.6c-1.61,3.66-2.8,7.25-4.69,10.42
		c-2.61,4.38-5.57,8.6-8.79,12.55c-0.84,1.03-3.32,1.26-4.87,0.96C123.6,199.03,123.15,196.95,123.13,196.9z M171.45,163.83
		c0.03-6.81-2.47-11.35-6.92-12.58c-5.31-1.46-10.47,1.12-13.74,6.96c-1.46,2.61-2.86,5.26-4.18,7.95
		c-3.35,6.85,1.27,14.63,8.87,15.01C164.31,181.61,171.41,173.91,171.45,163.83z"/>
	<path d="M213.47,155.83c0,1.82,0,3.63,0,5.45c0,3.13-0.48,6.36,0.12,9.36c1.29,6.42,5.12,10.16,12.47,9
		c-3.66,5.61-9.02,3.19-15.45-6.39c-6.59,10.55-11.32,12.76-22.95,10.81c-4.42-0.74-6.63-3.03-6.7-7.73
		c-0.18-12.26,3.38-19.43,11.81-22.52c5.89-2.16,11.84-2.46,19.2,0.53c-2.18,0.71-3.08,1.26-3.96,1.24
		c-2.31-0.06-4.62-0.55-6.93-0.53c-12.47,0.12-20.66,11.23-17.03,23.11c0.3,0.99,1.19,2.06,2.1,2.57c6.01,3.4,16.68,0.69,19.73-5.48
		c2.01-4.07,2.91-8.71,4.18-13.12c0.61-2.12,0.93-4.33,1.39-6.49C212.11,155.71,212.79,155.77,213.47,155.83z"/>
	<path d="M137.13,151.81c-0.08-1.19-0.25-2.37-0.24-3.56c0.06-5.3-2.16-9.39-6.74-11.96c-5.12-2.86-10.52-3.22-15.74-0.33
		c-4.55,2.53-4.92,8.72-0.52,13.32c2.24,2.34,5.26,4,8.1,5.68c6.78,4,9.99,8.63,8.79,13.1c-1.24,4.6-7.72,7.64-15.14,7.09
		c-8.43-0.62-14.21-8.28-10.95-15.93c0.56,1.55,1.09,2.42,1.17,3.33c0.38,4.7,2.93,7.84,7.21,9.24c4.86,1.59,9.82,0.97,13.51-2.61
		c1.15-1.12,1.13-4.92,0.1-6.48c-1.55-2.35-4.42-3.85-6.8-5.62c-2.66-1.97-5.77-3.47-8.01-5.82c-3.37-3.53-4.82-8-3.08-12.89
		c1.6-4.5,5.46-5.93,9.75-6.66c10.86-1.86,20.17,4.49,21,14.54c0.15,1.85-0.57,3.77-0.89,5.66
		C138.14,151.88,137.64,151.84,137.13,151.81z"/>
	<path d="M285.74,188.19c-10-0.14-17.64-7.93-17.55-17.89c0.09-9.79,8.78-18.14,18.91-18.17c8.84-0.02,17.03,7.85,16.91,16.28
		C303.84,180.64,296.73,188.34,285.74,188.19z M301.17,168.71c0.14-7.17-6.46-13.39-14.36-13.52c-8.27-0.13-15.6,6.78-15.79,14.88
		c-0.2,8.54,6.38,15.33,14.94,15.42C294.94,185.6,300.96,178.96,301.17,168.71z"/>
	<path d="M255.27,163.09c1.33-6.3-1.2-9.11-8.01-8.9c-7.61,0.24-13.88,6.45-14.99,14.84c-0.99,7.51,2.91,13.37,10.29,15.47
		c5.62,1.6,8.47,0.23,12.41-5.96c1.93,3.05,0.85,6.75-3.48,8c-4.86,1.39-8.88,3.66-12.89,6.59c-3.3,2.42-6.4,0.88-8.88-4.2
		c2.48,0.84,4.38,2.1,6.12,1.91c1.88-0.21,3.6-1.79,5.74-2.96c-12.48-7.55-15.57-19.05-8.4-29.1c4.91-6.89,15.79-9.68,22.19-5.26
		c1.75,1.21,2.96,3.85,3.42,6.04c0.27,1.27-1.44,2.97-2.26,4.47C256.12,163.72,255.69,163.41,255.27,163.09z"/>
	<path d="M79.17,144.49c-1.4,10.24,5.16,15.07,14.29,18.09c-0.2,0.43-0.39,0.87-0.59,1.3c-1.29,0-2.64,0.25-3.86-0.04
		c-8.78-2.13-14.43-11.62-12.32-20.54c2.23-9.4,10.73-14.57,20.2-12.28c5.59,1.35,7.59,4.18,7.22,9.59
		c-0.37,5.44-4.16,6.69-8.36,6.41C90.4,146.65,85.1,145.43,79.17,144.49z M80.98,140.26c4.93,3.46,10.1,5.03,15.67,3.8
		c1.78-0.39,4.41-2.51,4.44-3.87c0.04-1.94-1.5-4.81-3.2-5.73C92.13,131.34,85.3,133.81,80.98,140.26z"/>
	<path d="M218.74,75.5c7.7,13.76,16.84,8.55,26.05,2.31c-0.23,4.86-7.44,9.1-14.58,9.04C223.38,86.78,218.57,82.49,218.74,75.5z"/>
	<path d="M188.83,73.16c-2.95,5.65-12.04,7.75-18.46,5.54c-4.86-1.67-8.5-7.12-7.38-12.98C168.31,79.37,177.57,78.42,188.83,73.16z"
		/>
</g>
</svg>
